<?xml version="1.0" encoding="UTF-8"?>
<svg id="Ebene_1" xmlns="http://www.w3.org/2000/svg" viewBox="0 0 693.25 214.02">
  <defs>
    <style>
      .cls-1 {
        opacity: .6;
      }

      .cls-1, .cls-2 {
        fill: #fff;
      }
    </style>
  </defs>
  <g>
    <path class="cls-1" d="M126.14,140.32v2.13c0,8.99-7.31,16.3-16.3,16.3h-38.26c-8.99,0-16.3-7.31-16.3-16.3v-38.26c0-8.99,7.31-16.3,16.3-16.3h2.13v52.44h52.44Z"/>
    <path class="cls-2" d="M126.85,127.56h-40.39v-44.65c0-15.24,12.4-27.64,27.64-27.64h12.76c17.58,0,31.89,14.31,31.89,31.89v8.5c0,17.58-14.31,31.89-31.89,31.89ZM104.88,109.13h21.97c7.42,0,13.46-6.04,13.46-13.46v-8.5c0-7.42-6.04-13.46-13.46-13.46h-12.76c-5.08,0-9.21,4.13-9.21,9.21v26.22Z"/>
  </g>
  <g>
    <path class="cls-2" d="M210.82,90.76c-14.95,0-24.44,10.9-24.44,24.25s9.49,24.25,24.44,24.25,24.34-10.9,24.34-24.25-9.49-24.25-24.34-24.25ZM210.82,133.34c-11.47,0-17.48-8.46-17.48-18.33s6.01-18.33,17.48-18.33,17.39,8.46,17.39,18.33-6.02,18.33-17.39,18.33Z"/>
    <path class="cls-2" d="M271.54,90.76c-10.15,0-17.11,4.98-20.4,12.78v-11.84h-6.96v63.73h6.96v-28.95c3.2,7.61,10.06,12.78,20.4,12.78,13.07,0,21.9-9.87,21.9-24.16s-8.83-24.34-21.9-24.34ZM269.38,133.34c-9.3,0-17.95-6.2-17.95-18.24s8.65-18.42,17.95-18.42,17.11,5.83,17.11,18.42-7.71,18.24-17.11,18.24Z"/>
    <path class="cls-2" d="M323.33,133.53c-10.34,0-15.32-7.52-15.6-17.29h37.5v-2.82c0-14.29-8.93-22.65-22.28-22.65s-21.9,8.55-21.9,23.59c0,13.63,7.33,24.91,22.46,24.91,14.29,0,19.93-8.93,21.9-17.2h-6.86c-1.69,6.96-6.67,11.47-15.23,11.47ZM322.86,96.49c8.74,0,14.85,5.17,15.51,14.29h-30.55c.75-9.02,6.86-14.29,15.04-14.29Z"/>
    <path class="cls-2" d="M381.33,90.76c-10.25,0-16.82,5.26-19.36,13.91v-12.97h-6.96v46.62h6.96v-20.3c0-12.5,6.49-21.34,17.01-21.34,8.27,0,12.03,3.95,12.03,13.63v28.01h7.05v-28.57c0-12.22-6.2-18.99-16.73-18.99Z"/>
    <path class="cls-2" d="M452.39,74.59c-5.27-1.69-11.34-2.54-18.24-2.54h-24.35v66.27h24.35c6.89,0,12.97-.85,18.24-2.54,5.26-1.69,9.57-4.98,12.92-9.87,3.35-4.89,5.03-11.81,5.03-20.77s-1.68-15.79-5.03-20.68c-3.35-4.89-7.66-8.18-12.92-9.87ZM452.54,118.53c-1.79,2.85-4.11,4.65-6.96,5.41s-6.66,1.13-11.42,1.13h-9.31v-39.86h9.31c4.76,0,8.55.38,11.37,1.13s5.14,2.57,6.96,5.45c1.82,2.88,2.72,7.33,2.72,13.35s-.89,10.54-2.68,13.39Z"/>
    <path class="cls-2" d="M509.31,126.67c-1.85,1.19-4.18,1.79-7,1.79-3.26,0-5.83-.95-7.71-2.87-1.88-1.91-2.95-4.56-3.2-7.94h35.53v-3.95c0-7.39-2.22-13.19-6.67-17.39-4.45-4.2-10.62-6.3-18.52-6.3-4.83,0-9.1.97-12.83,2.91s-6.64,4.75-8.74,8.41c-2.1,3.67-3.15,8.01-3.15,13.02s1.02,9.21,3.05,12.97c2.04,3.76,4.97,6.69,8.79,8.79,3.82,2.1,8.33,3.15,13.54,3.15,7.08,0,12.77-1.63,17.06-4.89,4.29-3.26,6.81-7.52,7.57-12.78h-14.19c-.5,2.19-1.68,3.89-3.53,5.08ZM494.55,102.98c1.91-1.63,4.4-2.44,7.47-2.44s5.69.82,7.66,2.44c1.97,1.63,3.09,3.95,3.34,6.96h-21.71c.25-3.01,1.33-5.33,3.24-6.96Z"/>
    <path class="cls-2" d="M575.77,115.81c-2.6-2.22-6.06-3.87-10.39-4.94l-11.09-2.73c-3.45-.88-5.17-2.29-5.17-4.23,0-1.13.59-2.04,1.79-2.73,1.19-.69,2.82-1.03,4.89-1.03,5.83,0,8.74,2.29,8.74,6.86h14.29c0-5.51-2.04-9.73-6.11-12.64s-9.74-4.37-17.01-4.37c-6.58,0-11.7,1.19-15.37,3.57-3.67,2.38-5.5,5.8-5.5,10.25,0,3.7,1.16,6.6,3.48,8.7,2.32,2.1,5.08,3.56,8.27,4.37l14.48,3.95c1.5.44,2.6.97,3.29,1.6.69.63,1.03,1.44,1.03,2.44,0,1.44-.58,2.49-1.74,3.15-1.16.66-3.02.99-5.59.99-3.51,0-6.11-.64-7.8-1.93-1.69-1.28-2.54-3.27-2.54-5.97h-14.29c0,5.96,2.07,10.47,6.21,13.54,4.13,3.07,10.21,4.61,18.24,4.61,7.2,0,12.64-1.21,16.31-3.62,3.67-2.41,5.5-5.91,5.5-10.48,0-4.01-1.3-7.13-3.9-9.35Z"/>
    <polygon class="cls-2" points="638.23 90.94 620.74 90.94 601.85 109.28 601.85 69.23 587.56 69.23 587.56 138.32 601.85 138.32 601.85 118.39 620.74 138.32 638.13 138.32 614.63 113.98 638.23 90.94"/>
  </g>
</svg>